<?xml version="1.0" encoding="utf-8"?>
<!-- Generator: Adobe Illustrator 18.0.0, SVG Export Plug-In . SVG Version: 6.00 Build 0)  -->
<!DOCTYPE svg PUBLIC "-//W3C//DTD SVG 1.1//EN" "http://www.w3.org/Graphics/SVG/1.1/DTD/svg11.dtd">
<svg version="1.1" id="Слой_1" xmlns="http://www.w3.org/2000/svg" xmlns:xlink="http://www.w3.org/1999/xlink" x="0px" y="0px"
	 viewBox="0 0 128 128" enable-background="new 0 0 128 128" xml:space="preserve">
<g>
	<g>
		<g>
			<g>
				<path fill="#FFFFFF" d="M79.6,89L79.6,89c-3.5,0-6.3-2.8-6.3-6.2V35.2c0-3.5,2.8-6.2,6.2-6.2h0c3.5,0,6.2,2.8,6.2,6.2v47.5
					C85.9,86.2,83.1,89,79.6,89z"/>
			</g>
			<g>
				<path fill="#C7D7E2" d="M79.6,29c-3.5,0-6.2,2.8-6.2,6.3v21.1c3.5,3.2,7.8,5.5,12.5,6.7V35.2C85.9,31.8,83.1,29,79.6,29z"/>
			</g>
			<g>
				<path fill="#333333" d="M79.6,92c-5.1,0-9.2-4.1-9.2-9.2V35.2c0-5.1,4.1-9.2,9.2-9.2s9.2,4.1,9.2,9.2v47.5
					C88.9,87.9,84.7,92,79.6,92z M79.6,32c-1.8,0-3.2,1.5-3.2,3.2v47.5c0,1.8,1.5,3.2,3.2,3.2s3.2-1.5,3.2-3.2V35.2
					C82.9,33.5,81.4,32,79.6,32z"/>
			</g>
			<g>
				<path fill="#FFFFFF" d="M98.4,54h-5c-11,0-20-9-20-20v0c0-11,9-20,20-20h5V54z"/>
			</g>
			<g>
				<path fill="#333333" d="M98.4,57h-5c-12.7,0-23-10.3-23-23s10.3-23,23-23h5c1.7,0,3,1.3,3,3v40C101.4,55.7,100,57,98.4,57z
					 M93.4,17c-9.4,0-17,7.6-17,17s7.6,17,17,17h2V17H93.4z"/>
			</g>
			<g>
				<path fill="#C7D7E2" d="M98.4,59L98.4,59c-3.5,0-6.2-2.8-6.2-6.2V15.2c0-3.5,2.8-6.2,6.2-6.2h0c3.5,0,6.2,2.8,6.2,6.2v37.5
					C104.6,56.2,101.8,59,98.4,59z"/>
			</g>
			<g>
				<path fill="#333333" d="M98.4,62c-5.1,0-9.2-4.1-9.2-9.2V15.2c0-5.1,4.1-9.2,9.2-9.2s9.2,4.1,9.2,9.2v37.5
					C107.6,57.9,103.5,62,98.4,62z M98.4,12c-1.8,0-3.2,1.5-3.2,3.2v37.5c0,1.8,1.5,3.2,3.2,3.2s3.2-1.5,3.2-3.2V15.2
					C101.6,13.5,100.2,12,98.4,12z"/>
			</g>
		</g>
		<g>
			<path fill="#333333" d="M79.6,122c-1.7,0-3-1.3-3-3V89c0-1.7,1.3-3,3-3s3,1.3,3,3v30C82.6,120.7,81.3,122,79.6,122z"/>
		</g>
	</g>
	<g>
		<g>
			<g>
				<path fill="#FFFFFF" d="M48.4,99L48.4,99c3.5,0,6.3-2.8,6.3-6.2V45.2c0-3.5-2.8-6.2-6.2-6.2h0c-3.5,0-6.2,2.8-6.2,6.2v47.5
					C42.1,96.2,44.9,99,48.4,99z"/>
			</g>
			<g>
				<path fill="#C7D7E2" d="M48.4,39c3.5,0,6.2,2.8,6.2,6.2v21.1c-3.5,3.2-7.8,5.5-12.5,6.7V45.2C42.1,41.8,44.9,39,48.4,39z"/>
			</g>
			<g>
				<path fill="#333333" d="M48.4,102c-5.1,0-9.2-4.1-9.2-9.2V45.2c0-5.1,4.1-9.2,9.2-9.2s9.2,4.1,9.2,9.2v47.5
					C57.6,97.9,53.5,102,48.4,102z M48.4,42c-1.8,0-3.2,1.5-3.2,3.2v47.5c0,1.8,1.5,3.2,3.2,3.2s3.2-1.5,3.2-3.2V45.2
					C51.6,43.5,50.2,42,48.4,42z"/>
			</g>
			<g>
				<path fill="#FFFFFF" d="M29.6,64h5c11,0,20-9,20-20v0c0-11-9-20-20-20h-5V64z"/>
			</g>
			<g>
				<path fill="#333333" d="M34.6,67h-5c-1.7,0-3-1.3-3-3V24c0-1.7,1.3-3,3-3h5c12.7,0,23,10.3,23,23S47.3,67,34.6,67z M32.6,61h2
					c9.4,0,17-7.6,17-17s-7.6-17-17-17h-2V61z"/>
			</g>
			<g>
				<path fill="#C7D7E2" d="M29.6,69L29.6,69c3.5,0,6.3-2.8,6.3-6.2V25.2c0-3.5-2.8-6.2-6.2-6.2h0c-3.5,0-6.2,2.8-6.2,6.2v37.5
					C23.4,66.2,26.2,69,29.6,69z"/>
			</g>
			<g>
				<path fill="#333333" d="M29.6,72c-5.1,0-9.2-4.1-9.2-9.2V25.2c0-5.1,4.1-9.2,9.2-9.2s9.2,4.1,9.2,9.2v37.5
					C38.9,67.9,34.7,72,29.6,72z M29.6,22c-1.8,0-3.2,1.5-3.2,3.2v37.5c0,1.8,1.5,3.2,3.2,3.2s3.2-1.5,3.2-3.2V25.2
					C32.9,23.5,31.4,22,29.6,22z"/>
			</g>
		</g>
		<g>
			<path fill="#333333" d="M48.4,122c-1.7,0-3-1.3-3-3V99c0-1.7,1.3-3,3-3s3,1.3,3,3v20C51.4,120.7,50,122,48.4,122z"/>
		</g>
	</g>
</g>
</svg>
