<svg width="40" height="50" viewBox="0 0 40 50" version="1.1" xmlns="http://www.w3.org/2000/svg" xmlns:xlink="http://www.w3.org/1999/xlink">
<title>logo</title>
<desc>Created using Figma</desc>
<g id="Canvas" transform="translate(-42 -20)">
<g id="logo">
<g id="logo">
<g id="Group">
<g id="Vector">
<use xlink:href="#path0_fill" transform="matrix(1.18618 5.67991e-32 5.67991e-32 1.18618 42 20)" fill="#FFFFFF"/>
</g>
</g>
<g id="Group">
<g id="G">
<use xlink:href="#path1_fill" transform="translate(54.5712 41.9812)" fill="#FF3339"/>
</g>
</g>
</g>
</g>
</g>
<defs>
<path id="path0_fill" d="M 29.33 15.1701C 30.5236 12.5108 31.3784 9.06408 29.9723 5.97501C 28.3317 2.37071 24.1259 0.361528 17.4733 0.00313667L 16.0037 0L 15.8908 0.00313667C 9.23739 0.361528 5.03238 2.37071 3.39178 5.97501C 2.02722 8.97232 2.79263 12.3061 3.92976 14.9309C 1.48062 17.8129 -1.67529e-07 21.545 -1.67529e-07 25.6238C -1.67529e-07 34.7522 7.39995 42.1521 16.5283 42.1521C 25.6567 42.1521 33.0567 34.7522 33.0567 25.6238C 33.0567 21.6572 31.6584 18.0184 29.33 15.1701ZM 7.28781 11.9171C 6.82276 10.442 6.65808 8.92527 7.21409 7.70894C 8.38337 5.15079 12.6574 4.38696 16.0609 4.19796L 17.3024 4.19796C 20.7051 4.38696 24.9799 5.15079 26.1492 7.70894C 26.7272 8.97389 26.5296 10.5651 26.0198 12.0959C 23.3338 10.2075 20.0621 9.09545 16.5283 9.09545C 13.1052 9.09545 9.92594 10.1353 7.28781 11.9171Z"/>
<path id="path1_fill" d="M 12.1869 7.81716L 13.7459 7.81716L 13.7459 13.68C 13.0286 14.3095 12.1795 14.7926 11.1987 15.1293C 10.2179 15.466 9.18589 15.6343 8.10262 15.6343C 6.56554 15.6343 5.18216 15.2976 3.9525 14.6242C 2.72283 13.9508 1.75667 13.0213 1.054 11.8355C 0.351333 10.6351 0 9.29569 0 7.81716C 0 6.33863 0.351333 5.0065 1.054 3.82075C 1.75667 2.62036 2.72283 1.68347 3.9525 1.01008C 5.18216 0.336694 6.57285 0 8.12458 0C 9.29569 0 10.3716 0.190305 11.3524 0.570916C 12.3333 0.936888 13.1603 1.48585 13.8337 2.21779L 12.8237 3.24983C 11.6086 2.04944 10.0642 1.44925 8.19045 1.44925C 6.94615 1.44925 5.81895 1.72739 4.80887 2.28366C 3.81343 2.8253 3.03025 3.58652 2.45933 4.56733C 1.88841 5.5335 1.60296 6.61677 1.60296 7.81716C 1.60296 9.01755 1.88841 10.1008 2.45933 11.067C 3.03025 12.0332 3.81343 12.7944 4.80887 13.3507C 5.80431 13.9069 6.92419 14.1851 8.16849 14.1851C 9.74949 14.1851 11.0889 13.7898 12.1869 12.9993L 12.1869 7.81716Z"/>
</defs>
</svg>
