<svg width="55" height="70" viewBox="0 0 55 70" fill="none" xmlns="http://www.w3.org/2000/svg">
<g id="logo">
<g id="logo_2">
<g id="Group">
<path id="Vector" d="M48.707 25.1922C50.6891 20.776 52.1086 15.0523 49.7736 9.92242C47.0491 3.93693 40.0647 0.600372 29.0171 0.00520892L26.5766 0L26.389 0.00520892C15.3401 0.600372 8.35702 3.93693 5.63256 9.92242C3.36651 14.8999 4.63758 20.4361 6.52596 24.795C2.45879 29.581 -2.78207e-07 35.7788 -2.78207e-07 42.5522C-2.78207e-07 57.7113 12.2887 70 27.4478 70C42.6069 70 54.8956 57.7113 54.8956 42.5522C54.8956 35.965 52.5736 29.9222 48.707 25.1922ZM12.1025 19.7901C11.3302 17.3405 11.0567 14.8218 11.9801 12.8019C13.9219 8.55368 21.0195 7.28521 26.6716 6.97135H28.7332C34.384 7.28521 41.483 8.55368 43.4247 12.8019C44.3846 14.9025 44.0564 17.5449 43.2099 20.0871C38.7494 16.9511 33.3161 15.1044 27.4478 15.1044C21.7632 15.1044 16.4835 16.8313 12.1025 19.7901Z" fill="white"/>
</g>
<g id="Group_2">
<path id="G" d="M34.6612 41.7177H36.8439V49.9257C35.8397 50.807 34.651 51.4833 33.2779 51.9547C31.9047 52.426 30.4599 52.6617 28.9433 52.6617C26.7914 52.6617 24.8547 52.1903 23.1331 51.2476C21.4116 50.3049 20.059 49.0035 19.0752 47.3434C18.0915 45.6629 17.5996 43.7876 17.5996 41.7177C17.5996 39.6478 18.0915 37.7828 19.0752 36.1227C20.059 34.4422 21.4116 33.1305 23.1331 32.1878C24.8547 31.245 26.8016 30.7737 28.974 30.7737C30.6136 30.7737 32.1199 31.0401 33.4931 31.5729C34.8662 32.0853 36.0241 32.8539 36.9669 33.8786L35.5528 35.3234C33.8517 33.6429 31.6896 32.8026 29.0663 32.8026C27.3242 32.8026 25.7462 33.192 24.3321 33.9708C22.9384 34.7291 21.842 35.7948 21.0427 37.1679C20.2434 38.5206 19.8438 40.0371 19.8438 41.7177C19.8438 43.3982 20.2434 44.9148 21.0427 46.2675C21.842 47.6201 22.9384 48.6858 24.3321 49.4646C25.7257 50.2434 27.2935 50.6328 29.0355 50.6328C31.2489 50.6328 33.1242 50.0794 34.6612 48.9727V41.7177Z" fill="#FF3339"/>
</g>
</g>
</g>
</svg>
