<?xml version="1.0" encoding="utf-8"?>
<!-- Generator: Adobe Illustrator 18.0.0, SVG Export Plug-In . SVG Version: 6.00 Build 0)  -->
<!DOCTYPE svg PUBLIC "-//W3C//DTD SVG 1.1//EN" "http://www.w3.org/Graphics/SVG/1.1/DTD/svg11.dtd">
<svg version="1.1" id="Слой_1" xmlns="http://www.w3.org/2000/svg" xmlns:xlink="http://www.w3.org/1999/xlink" x="0px" y="0px"
	 viewBox="0 0 128 128" enable-background="new 0 0 128 128" xml:space="preserve">
<g>
	<g>
		<g>
			<g>
				<path fill="#EFDED5" d="M44.2,58.5c0.1,6,4.9,10.8,10.9,10.7l11.4-0.1c3.2,0,6.2,0.8,8.9,2.2c0-0.4,0-0.8,0-1.3v-5.5
					c0.7-7.4,2.3-14.5,6.5-20.7L106,10.8c2.4-3.4,0.2-8.1-4-8.3l0,0C80.6,1.6,60.8,14,52.4,33.6l-1,2.3c-2.2,5-5.1,9.6-8.7,13.7
					h-1.1c1.7,2.6,2.7,5.6,2.7,8.7L44.2,58.5z"/>
			</g>
		</g>
		<g>
			<g>
				<path fill="#D8B39A" d="M100.9,2.5L75.9,44c-4.2,6.1-5.8,13.2-6.5,20.7v4.5c0,0,4.1,0.3,6,0.9v-5.5c0.7-7.4,2.3-14.5,6.5-20.7
					L106,10.8c2.4-3.4,0.2-8.1-4-8.3L100.9,2.5z"/>
			</g>
		</g>
		<g>
			<g>
				<path fill="#F7F7FB" d="M24.5,79.3L16,87.8l68.1,31.8c3.9,2.3,8.3,3.4,12.8,3.4l18.2-0.1c4-0.3,7.9-2.8,7.9-10"/>
			</g>
		</g>
		<g>
			<g>
				<path fill="#454B54" d="M77.4,73.2c-1.5,0-2.7-1.1-3-2.5l-1-6.5c-0.3-1.6,0.9-3.2,2.5-3.4c1.6-0.3,3.2,0.9,3.4,2.5l1,6.5
					c0.3,1.6-0.9,3.2-2.5,3.4C77.8,73.1,77.6,73.2,77.4,73.2z"/>
			</g>
		</g>
		<g>
			<g>
				<path fill="#F3797B" d="M40.8,48.7L25.8,67c-2.9,3.5-3.4,8.3-1.3,12.3l0,0l67.6,38l20.4,0.6c4.8,0,10.1-0.7,9.4-5.4l0-0.1
					c-0.2-1.3-0.8-2.6-1.8-3.5l-19.1-5.5l-1.9-1.8L81.9,77.2c-3.5-5-9.3-8-15.5-8l-11.4,0.1c-6,0-10.8-4.8-10.9-10.7l0-0.2
					C44.1,54.8,42.9,51.4,40.8,48.7L40.8,48.7z"/>
			</g>
		</g>
		<g>
			<g>
				<polygon fill="#FFFFFF" points="40.9,91.4 81.1,80.4 91,95.3 61.4,103.5 				"/>
			</g>
		</g>
		<g>
			<g>
				<path fill="#454B54" d="M123,115.9c-1.7,0-3-1.3-3-3c0-0.7,0-0.9-0.2-1.2l-19.5-5.6c-0.4-0.1-0.9-0.4-1.2-0.7l-1.9-1.8
					c-0.2-0.1-0.3-0.3-0.4-0.5L79.5,78.9c-1-1.4-0.6-3.2,0.7-4.2c1.4-1,3.2-0.6,4.2,0.7l17,24.1l1.2,1.1l19.7,5.6
					c0.5,0.1,0.9,0.4,1.3,0.8l0.1,0.1c1.3,1.3,2.4,2.6,2.4,5.8C126,114.6,124.7,115.9,123,115.9z"/>
			</g>
		</g>
		<g>
			<g>
				<path fill="#454B54" d="M24.5,82.3c-1.1,0-2.1-0.6-2.7-1.6c-2.6-5.1-2-11.2,1.6-15.6l15-18.3c0.6-0.7,1.4-1.1,2.4-1.1
					c0.9,0,1.8,0.4,2.3,1.1c2.6,3.3,4,7.3,4,11.5l0,0.2c0,1.7-1.3,3-3,3c-1.6,0-3-1.3-3-3l0-0.2c0-1.5-0.3-3-0.8-4.4L28.1,68.9
					c-2.1,2.6-2.5,6.1-0.9,9.1c0.8,1.5,0.2,3.3-1.3,4C25.5,82.2,25,82.3,24.5,82.3z"/>
			</g>
		</g>
		<g>
			<g>
				<path fill="#454B54" d="M99.1,104.6c-0.9,0-1.9-0.4-2.5-1.3L79.5,78.9c-3-4.2-7.8-6.7-12.9-6.7c0,0-0.1,0-0.1,0l-11.4,0.1
					c0,0,0,0-0.1,0c-7.6,0-13.8-6.1-13.9-13.7l0-0.2c0-1.7,1.3-3,3-3c0,0,0,0,0,0c1.6,0,3,1.3,3,3l0,0.2c0.1,4.3,3.6,7.8,7.9,7.8
					c0,0,0,0,0,0l11.4-0.1c0,0,0.1,0,0.1,0c7.1,0,13.7,3.4,17.8,9.2l17.2,24.4c1,1.4,0.6,3.2-0.7,4.2
					C100.3,104.4,99.7,104.6,99.1,104.6z"/>
			</g>
		</g>
		<g>
			<g>
				<path fill="#454B54" d="M96.9,126c-5,0-9.9-1.3-14.2-3.8l-68-31.7c-0.9-0.4-1.5-1.2-1.7-2.2c-0.2-1,0.1-1.9,0.8-2.6l8.5-8.5
					c1.2-1.2,3.1-1.2,4.2,0c1.2,1.2,1.2,3.1,0,4.2l-5.4,5.4l64.2,30c0.1,0,0.2,0.1,0.2,0.1c3.4,2,7.3,3,11.3,3l18-0.1
					c3.4-0.3,5-2.6,5-7c0-1.7,1.3-3,3-3s3,1.3,3,3c0,11.3-8.2,12.8-10.7,13c-0.1,0-0.1,0-0.2,0L96.9,126C96.9,126,96.9,126,96.9,126
					z"/>
			</g>
		</g>
		<g>
			<g>
				<path fill="#454B54" d="M78.8,76.8c-0.9,0-1.8-0.4-2.4-1.2c-1-1.3-0.7-3.2,0.6-4.2l2.7-2.1c1.3-1,3.2-0.7,4.2,0.6
					c1,1.3,0.7,3.2-0.6,4.2l-2.7,2.1C80.1,76.6,79.5,76.8,78.8,76.8z"/>
			</g>
		</g>
		<g>
			<g>
				<path fill="#454B54" d="M86.1,86.2c-0.9,0-1.8-0.4-2.4-1.2c-1-1.3-0.7-3.2,0.6-4.2l2.5-1.8c1.3-1,3.2-0.7,4.2,0.6
					c1,1.3,0.7,3.2-0.6,4.2l-2.5,1.8C87.4,86,86.8,86.2,86.1,86.2z"/>
			</g>
		</g>
		<g>
			<g>
				<path fill="#454B54" d="M93.7,94.5c-1,0-1.9-0.5-2.5-1.3c-0.9-1.4-0.5-3.2,0.8-4.2l1.4-0.9c1.4-0.9,3.2-0.5,4.2,0.9
					c0.9,1.4,0.5,3.2-0.8,4.2L95.4,94C94.9,94.3,94.3,94.5,93.7,94.5z"/>
			</g>
		</g>
		<g>
			<g>
				<path fill="#454B54" d="M51.3,39c-0.4,0-0.8-0.1-1.2-0.2c-1.5-0.7-2.2-2.4-1.6-3.9l10-23.2c0.7-1.5,2.4-2.2,3.9-1.6
					c1.5,0.7,2.2,2.4,1.6,3.9l-10,23.2C53.6,38.3,52.5,39,51.3,39z"/>
			</g>
		</g>
		<g>
			<g>
				<path fill="#454B54" d="M77.5,57.5c-0.3,0-0.5,0-0.8-0.1c-1.6-0.4-2.6-2.1-2.1-3.7c1.2-4.6,2.9-8.4,4.9-11.4l27.8-38.1
					c1-1.3,2.9-1.6,4.2-0.7c1.3,1,1.6,2.9,0.7,4.2l-27.7,38c-1.6,2.3-3,5.5-4,9.5C80,56.6,78.8,57.5,77.5,57.5z"/>
			</g>
		</g>
	</g>
</g>
</svg>
