<?xml version="1.0" standalone="no"?>
<!DOCTYPE svg PUBLIC "-//W3C//DTD SVG 20010904//EN"
 "http://www.w3.org/TR/2001/REC-SVG-20010904/DTD/svg10.dtd">
<svg version="1.0" xmlns="http://www.w3.org/2000/svg"
 width="700.000000pt" height="700.000000pt" viewBox="0 0 700.000000 700.000000"
 preserveAspectRatio="xMidYMid meet">
<metadata>
Created by potrace 1.11, written by Peter Selinger 2001-2013
</metadata>
<g transform="translate(0.000000,700.000000) scale(0.100000,-0.100000)"
fill="#000000" stroke="none">
<path d="M3380 6414 c-19 -2 -91 -9 -160 -15 -569 -50 -1033 -225 -1297 -488
-366 -366 -426 -881 -175 -1508 l21 -52 -54 -70 c-256 -327 -414 -705 -470
-1125 -22 -163 -17 -509 10 -656 43 -239 106 -433 210 -645 336 -685 1001
-1155 1775 -1256 151 -19 440 -15 606 10 1004 149 1773 923 1931 1941 21 138
24 466 4 605 -56 408 -213 792 -447 1097 -24 31 -44 61 -44 66 0 5 23 68 50
140 97 254 136 472 127 705 -20 526 -345 906 -942 1103 -320 105 -858 174
-1145 148z m475 -599 c384 -45 697 -151 851 -290 155 -138 212 -324 173 -565
-9 -59 -46 -200 -55 -209 -1 -2 -43 22 -92 53 -531 335 -1172 435 -1792 279
-203 -51 -466 -163 -629 -267 -40 -26 -75 -46 -76 -44 -2 2 -13 41 -26 88 -27
102 -37 298 -20 381 18 86 65 174 128 240 188 198 502 300 1083 353 77 7 319
-3 455 -19z m46 -1994 c148 -38 262 -97 348 -177 l56 -53 -55 -55 c-30 -31
-58 -56 -63 -56 -5 0 -29 17 -53 39 -56 49 -159 103 -254 132 -101 32 -336 34
-445 5 -160 -42 -311 -140 -400 -258 -96 -126 -144 -260 -152 -423 -11 -210
60 -403 203 -550 138 -142 303 -212 519 -222 178 -8 332 26 461 102 l44 26 0
304 0 305 95 0 95 0 0 -340 0 -340 -52 -40 c-28 -23 -92 -61 -143 -86 -278
-135 -638 -139 -905 -9 -348 168 -543 524 -501 914 45 415 327 714 751 797 97
19 354 11 451 -15z"/>
</g>
</svg>
