<?xml version="1.0" standalone="no"?>
<!DOCTYPE svg PUBLIC "-//W3C//DTD SVG 20010904//EN"
 "http://www.w3.org/TR/2001/REC-SVG-20010904/DTD/svg10.dtd">
<svg version="1.0" xmlns="http://www.w3.org/2000/svg"
 width="700.000000pt" height="700.000000pt" viewBox="0 0 700.000000 700.000000"
 preserveAspectRatio="xMidYMid meet">
<metadata>
Created by potrace 1.11, written by Peter Selinger 2001-2013
</metadata>
<g transform="translate(0.000000,700.000000) scale(0.100000,-0.100000)"
fill="#000000" stroke="none">
<path d="M0 3500 l0 -3500 3500 0 3500 0 0 3500 0 3500 -3500 0 -3500 0 0
-3500z m3686 2089 c464 -45 774 -164 975 -376 88 -94 131 -164 170 -276 74
-214 58 -463 -47 -743 -19 -51 -34 -97 -34 -104 0 -7 13 -29 29 -49 134 -171
250 -428 301 -666 27 -128 38 -397 21 -528 -31 -234 -112 -466 -230 -657 -261
-420 -671 -692 -1161 -771 -107 -17 -390 -17 -490 0 -327 56 -600 184 -837
391 -651 567 -749 1560 -221 2238 l49 62 -37 97 c-54 146 -84 304 -84 448 0
344 162 596 489 760 272 136 740 210 1107 174z"/>
<path d="M3225 5164 c-480 -62 -716 -225 -718 -499 0 -81 29 -245 44 -245 5 0
34 17 66 37 131 83 337 164 526 205 88 19 132 22 322 22 191 0 234 -3 325 -22
197 -43 389 -120 548 -219 40 -25 75 -44 76 -42 2 2 12 38 22 79 12 49 19 111
19 180 0 99 -2 109 -33 172 -73 150 -249 250 -533 307 -219 43 -452 52 -664
25z"/>
<path d="M3411 3740 c-145 -31 -277 -104 -368 -204 -59 -64 -125 -190 -148
-281 -8 -32 -15 -103 -15 -156 0 -232 103 -427 289 -547 124 -81 271 -117 431
-108 148 8 274 49 385 126 l45 31 0 249 0 250 -65 0 -65 0 -2 -222 -3 -223
-65 -32 c-83 -41 -152 -56 -265 -57 -164 -1 -289 48 -395 154 -141 140 -190
321 -140 516 73 283 360 446 671 380 78 -17 134 -43 205 -96 l51 -39 42 43 42
43 -42 37 c-61 52 -115 81 -205 112 -67 23 -99 27 -209 30 -71 2 -150 -1 -174
-6z"/>
</g>
</svg>
