<?xml version="1.0" encoding="utf-8"?>
<!-- Generator: Adobe Illustrator 18.0.0, SVG Export Plug-In . SVG Version: 6.00 Build 0)  -->
<!DOCTYPE svg PUBLIC "-//W3C//DTD SVG 1.1//EN" "http://www.w3.org/Graphics/SVG/1.1/DTD/svg11.dtd">
<svg version="1.1" id="Слой_1" xmlns="http://www.w3.org/2000/svg" xmlns:xlink="http://www.w3.org/1999/xlink" x="0px" y="0px"
	 viewBox="0 0 128 128" enable-background="new 0 0 128 128" xml:space="preserve">
<g>
	<g>
		<path fill="#F3CED4" d="M51.3,81.4H33.9c-9.6,0-17.4-7.8-17.4-17.4v0c0-9.6,7.8-17.4,17.4-17.4h17.4V81.4z"/>
	</g>
	<g>
		<g>
			<path fill="#E97583" d="M16.5,64c0,9.6,7.8,17.4,17.4,17.4h17.4v-8.7H33.9c-8.1,0-14.9-5.5-16.8-13C16.7,61,16.5,62.5,16.5,64
				L16.5,64z"/>
		</g>
	</g>
	<g>
		<path fill="#FFFFFF" d="M79.1,102.3L51.3,81.4V46.6l27.8-20.9c2.9-2.1,7-0.1,7,3.5v69.6C86.1,102.4,82,104.4,79.1,102.3z"/>
	</g>
	<g>
		<g>
			<path fill="#C7D7E2" d="M79.1,93.6L51.3,72.7v8.7l27.8,20.9c2.9,2.1,7,0.1,7-3.5v-8.7C86.1,93.7,82,95.7,79.1,93.6z"/>
		</g>
	</g>
	<g>
		<path fill="#333333" d="M81.7,106.1c-1.6,0-3.1-0.5-4.4-1.5L49.5,83.8c-0.8-0.6-1.2-1.5-1.2-2.4V46.6c0-1.7,1.3-3,3-3s3,1.3,3,3
			v33.3l26.6,20c0.6,0.4,1.1,0.3,1.4,0.1c0.3-0.1,0.7-0.5,0.7-1.2V29.2c0-0.7-0.5-1.1-0.7-1.2c-0.3-0.1-0.8-0.3-1.4,0.1L63.7,41
			c-1.3,1-3.2,0.7-4.2-0.6c-1-1.3-0.7-3.2,0.6-4.2l17.2-12.9c2.2-1.7,5.2-1.9,7.7-0.7c2.5,1.3,4.1,3.8,4.1,6.6v69.6
			c0,2.8-1.6,5.3-4.1,6.6C84,105.9,82.8,106.1,81.7,106.1z"/>
	</g>
	<g>
		<path fill="#333333" d="M51.3,84.4H33.9c-11.2,0-20.4-9.1-20.4-20.4s9.1-20.4,20.4-20.4h17.4c1.7,0,3,1.3,3,3v34.8
			C54.3,83,52.9,84.4,51.3,84.4z M33.9,49.6c-7.9,0-14.4,6.5-14.4,14.4S26,78.4,33.9,78.4h14.4V49.6H33.9z"/>
	</g>
	<g>
		<path fill="#FFFFFF" d="M116.5,67H99.1c-1.7,0-3-1.3-3-3s1.3-3,3-3h17.4c1.7,0,3,1.3,3,3S118.2,67,116.5,67z"/>
	</g>
	<g>
		<path fill="#FFFFFF" d="M99.1,49.6c-1,0-1.9-0.5-2.5-1.3c-0.9-1.4-0.5-3.2,0.8-4.2l13-8.7c1.4-0.9,3.2-0.5,4.2,0.8
			c0.9,1.4,0.5,3.2-0.8,4.2l-13,8.7C100.3,49.4,99.7,49.6,99.1,49.6z"/>
	</g>
	<g>
		<path fill="#FFFFFF" d="M112.1,93.1c-0.6,0-1.1-0.2-1.7-0.5l-13-8.7c-1.4-0.9-1.8-2.8-0.8-4.2c0.9-1.4,2.8-1.8,4.2-0.8l13,8.7
			c1.4,0.9,1.8,2.8,0.8,4.2C114.1,92.6,113.1,93.1,112.1,93.1z"/>
	</g>
</g>
</svg>
