<?xml version="1.0" encoding="utf-8"?>
<!-- Generator: Adobe Illustrator 18.0.0, SVG Export Plug-In . SVG Version: 6.00 Build 0)  -->
<!DOCTYPE svg PUBLIC "-//W3C//DTD SVG 1.1//EN" "http://www.w3.org/Graphics/SVG/1.1/DTD/svg11.dtd">
<svg version="1.1" id="Слой_1" xmlns="http://www.w3.org/2000/svg" xmlns:xlink="http://www.w3.org/1999/xlink" x="0px" y="0px"
	 viewBox="0 0 128 128" enable-background="new 0 0 128 128" xml:space="preserve">
<g>
	<g>
		<g>
			<path fill="#F7E290" d="M40.7,47.9L40.7,47.9c0,0,0.7-1.8,1.2-2.5L54,19l5,8L69,9l16.9,35.9c0.5,0.9,1,1.9,1.4,2.9l0,0
				c1.1,2.8,1.8,5.9,1.8,9.2c0,13.8-11.2,25-25,25S39,70.8,39,57C39,53.8,39.6,50.7,40.7,47.9z"/>
		</g>
		<g opacity="0.7">
			<g>
				<path fill="#FAAA3D" d="M87.2,47.8L87.2,47.8c-0.4-1-0.8-2-1.4-2.9L69,9l-5.4,9.7l12.3,26.2c0.5,0.9,1,1.9,1.4,2.9l0,0
					c1.1,2.8,1.8,5.9,1.8,9.2c0,12.1-8.6,22.2-20,24.5c1.6,0.3,3.3,0.5,5,0.5c13.8,0,25-11.2,25-25C89,53.8,88.4,50.7,87.2,47.8z"/>
			</g>
		</g>
		<g>
			<path fill="#FFFFFF" d="M64,69c6.9,0,12.5-5.6,12.5-12.5c0-1.5-0.3-3-0.8-4.5c-0.3-0.6-0.5-1.2-0.7-1.4l-0.2-0.4L74,48.4
				l-4.7,7.5L59.1,37.6l-5.8,12.3L53,50.5c-0.2,0.4-0.5,0.9-0.7,1.4c-0.6,1.5-0.9,3-0.9,4.6C51.5,63.4,57.1,69,64,69z"/>
		</g>
		<g>
			<path fill="#464C55" d="M64,85c-15.4,0-28-12.6-28-28c0-3.4,0.6-6.8,1.8-10c0-0.1,0.1-0.2,0.1-0.3c0.1-0.2,0.8-1.8,1.2-2.7
				l12.1-26.3c0.5-1,1.4-1.7,2.5-1.7c1.1-0.1,2.2,0.5,2.7,1.4l2.3,3.7l7.5-13.6C66.9,6.6,68,6,69.1,6s2.1,0.7,2.6,1.7l16.9,35.8
				c0.5,1,1,2,1.5,3.1l0,0C91.3,50,92,53.5,92,57C92,72.4,79.4,85,64,85z M43.5,48.9C43.5,48.9,43.5,49,43.5,48.9
				c-1,2.7-1.5,5.3-1.5,8.1c0,12.1,9.9,22,22,22s22-9.9,22-22c0-2.8-0.5-5.5-1.5-8.1l0,0c-0.3-0.9-0.7-1.7-1.2-2.5
				c0-0.1-0.1-0.1-0.1-0.2L68.8,15.6l-7.2,12.9c-0.5,0.9-1.5,1.5-2.5,1.5c-1.1,0-2.1-0.5-2.6-1.4l-2.1-3.3l-9.8,21.3
				c0,0,0,0.1-0.1,0.1C44.3,47.2,43.8,48.2,43.5,48.9z"/>
		</g>
	</g>
	<g>
		<g>
			<polygon fill="#BFC9D5" points="69,119 59,119 54,88 74,88 			"/>
		</g>
		<g>
			<polygon fill="#FFFFFF" points="64,119 59,119 54,88 64,88 			"/>
		</g>
		<g>
			<path fill="#464C55" d="M69,122H59c-1.5,0-2.7-1.1-3-2.5l-5-31c-0.1-0.9,0.1-1.8,0.7-2.4c0.6-0.7,1.4-1.1,2.3-1.1h20
				c0.9,0,1.7,0.4,2.3,1.1c0.6,0.7,0.8,1.6,0.7,2.4l-5,31C71.7,120.9,70.5,122,69,122z M61.6,116h4.9l4-25h-13L61.6,116z"/>
		</g>
		<g>
			<rect x="44" y="78" fill="#D2DBE6" width="40" height="10"/>
		</g>
		<g>
			<rect x="64" y="78" fill="#BFC9D5" width="20" height="10"/>
		</g>
		<g>
			<rect x="44" y="78" fill="#FFFFFF" width="10" height="10"/>
		</g>
		<g>
			<path fill="#464C55" d="M84,91H44c-1.7,0-3-1.3-3-3V78c0-1.7,1.3-3,3-3h40c1.7,0,3,1.3,3,3v10C87,89.7,85.7,91,84,91z M47,85h34
				v-4H47V85z"/>
		</g>
	</g>
</g>
</svg>
