<?xml version="1.0" encoding="utf-8"?>
<!-- Generator: Adobe Illustrator 18.0.0, SVG Export Plug-In . SVG Version: 6.00 Build 0)  -->
<!DOCTYPE svg PUBLIC "-//W3C//DTD SVG 1.1//EN" "http://www.w3.org/Graphics/SVG/1.1/DTD/svg11.dtd">
<svg version="1.1" id="Слой_1" xmlns="http://www.w3.org/2000/svg" xmlns:xlink="http://www.w3.org/1999/xlink" x="0px" y="0px"
	 viewBox="0 0 128 128" enable-background="new 0 0 128 128" xml:space="preserve">
<g>
	<g>
		<g>
			<g>
				<path fill="#FFFFFF" d="M85,96H41c-5.5,0-10-4.5-10-10V42c0-5.5,4.5-10,10-10h44c5.5,0,10,4.5,10,10v44C95,91.5,90.5,96,85,96z"
					/>
			</g>
		</g>
		<g>
			<g>
				<path fill="#F3797B" d="M67.4,56.1c-1.8,0-3.4,0.8-4.4,2.1c-1-1.3-2.6-2.1-4.4-2.1c-3.1,0-5.6,2.5-5.6,5.6
					c0,3.1,1.7,5.8,3.3,7.4c1.3,1.3,3.2,3.2,6.7,4.9c3.5-1.7,5.4-3.6,6.7-4.9c1.6-1.6,3.3-4.3,3.3-7.4C73,58.6,70.5,56.1,67.4,56.1z
					"/>
			</g>
		</g>
		<g>
			<g>
				<path fill="#53C5CE" d="M77,10H49c-2.6,0-4.7,1.9-5,4.5L43,24c-0.3,3.2-2,6.1-4.5,8l0,0h49v0c-2.6-1.9-4.2-4.8-4.5-8l-1-9.6
					C81.7,11.9,79.6,10,77,10z"/>
			</g>
		</g>
		<g>
			<g>
				<path fill="#FFFFFF" d="M49,30c0.8-8,7.6-14,15.6-14h17.5L82,14.5c-0.3-2.5-2.4-4.5-5-4.5H49c-2.6,0-4.7,1.9-5,4.5L43,24
					c-0.3,3.2-2,6.1-4.5,8h10.1C48.8,31.4,49,30.7,49,30L49,30z"/>
			</g>
		</g>
		<g>
			<g>
				<path fill="#454B54" d="M87.5,35c-0.6,0-1.3-0.2-1.8-0.6c-3.2-2.4-5.3-6.1-5.7-10.1l-1-9.6c-0.1-1-1-1.8-2-1.8H49
					c-1,0-1.9,0.8-2,1.8l-1,9.5c-0.4,4-2.5,7.7-5.7,10.1c-1.3,1-3.2,0.7-4.2-0.6c-1-1.3-0.7-3.2,0.6-4.2c1.9-1.4,3.1-3.6,3.3-5.9
					l1-9.5c0.4-4.1,3.9-7.2,8-7.2h28c4.1,0,7.5,3.1,8,7.2l1,9.6c0.2,2.3,1.5,4.5,3.3,5.9c1.3,1,1.6,2.9,0.6,4.2
					C89.3,34.6,88.4,35,87.5,35z"/>
			</g>
		</g>
		<g>
			<g>
				<path fill="#22B6C6" d="M77,118H49c-2.6,0-4.7-1.9-5-4.5l-1-9.6c-0.3-3.2-2-6.1-4.5-8h0h49l0,0c-2.6,1.9-4.2,4.8-4.5,8l-1,9.6
					C81.7,116.1,79.6,118,77,118z"/>
			</g>
		</g>
		<g>
			<g>
				<path fill="#1FA1A8" d="M43.7,110l0.4,3.5c0.3,2.5,2.4,4.5,5,4.5h28c2.6,0,4.7-1.9,5-4.5l0.4-3.5H43.7z"/>
			</g>
		</g>
		<g>
			<g>
				<path fill="#454B54" d="M77,121H49c-4.1,0-7.5-3.1-8-7.2l-1-9.6c-0.2-2.3-1.5-4.5-3.3-5.9c-1-0.8-1.5-2.1-1-3.3
					c0.4-1.2,1.6-2.1,2.8-2.1h49c1.3,0,2.4,0.8,2.8,2.1s0,2.6-1,3.3c-1.9,1.4-3.1,3.6-3.3,5.9l-1,9.6C84.5,117.9,81.1,121,77,121z
					 M44.7,99c0.7,1.5,1.1,3,1.3,4.7l1,9.6c0.1,1,1,1.8,2,1.8h28c1,0,1.9-0.8,2-1.8l1-9.5c0.2-1.6,0.6-3.2,1.3-4.7H44.7z"/>
			</g>
		</g>
		<g>
			<g>
				<path fill="#454B54" d="M85,99H41c-7.2,0-13-5.8-13-13V42c0-7.2,5.8-13,13-13h44c7.2,0,13,5.8,13,13v44C98,93.2,92.2,99,85,99z
					 M41,35c-3.9,0-7,3.1-7,7v44c0,3.9,3.1,7,7,7h44c3.9,0,7-3.1,7-7V42c0-3.9-3.1-7-7-7H41z"/>
			</g>
		</g>
	</g>
</g>
</svg>
