<?xml version="1.0" encoding="utf-8"?>
<!-- Generator: Adobe Illustrator 18.0.0, SVG Export Plug-In . SVG Version: 6.00 Build 0)  -->
<!DOCTYPE svg PUBLIC "-//W3C//DTD SVG 1.1//EN" "http://www.w3.org/Graphics/SVG/1.1/DTD/svg11.dtd">
<svg version="1.1" id="Слой_1" xmlns="http://www.w3.org/2000/svg" xmlns:xlink="http://www.w3.org/1999/xlink" x="0px" y="0px"
	 viewBox="0 0 128 128" enable-background="new 0 0 128 128" xml:space="preserve">
<g>
	<g>
		<g>
			<g>
				<circle fill="#B3E1EA" cx="80" cy="64" r="30"/>
			</g>
		</g>
		<g>
			<g>
				<path fill="#FFFFFF" d="M90.6,53.4C87.7,50.5,83.8,49,80,49V34H14v12l37.1,10c-2.8,10.1-0.2,21.3,7.7,29.3
					C64.6,91.1,72.3,94,80,94V79c3.8,0,7.7-1.5,10.6-4.4C96.5,68.7,96.5,59.3,90.6,53.4z"/>
			</g>
		</g>
		<g>
			<g>
				<path fill="#454B54" d="M80,97c-8.5,0-16.9-3.2-23.3-9.6c-11-11-12.8-28.5-4.2-41.5c0.9-1.4,2.8-1.8,4.2-0.9
					c1.4,0.9,1.8,2.8,0.9,4.2c-7,10.6-5.6,24.9,3.5,33.9c10.5,10.5,27.7,10.5,38.2,0s10.5-27.7,0-38.2C94,39.8,87.2,37,80,37
					c-1.7,0-3-1.3-3-3s1.3-3,3-3c8.8,0,17.1,3.4,23.3,9.7c12.9,12.9,12.9,33.8,0,46.7C96.9,93.8,88.5,97,80,97z"/>
			</g>
		</g>
		<g>
			<g>
				<path fill="#454B54" d="M114,67h-4c-1.7,0-3-1.3-3-3s1.3-3,3-3h4c1.7,0,3,1.3,3,3S115.7,67,114,67z"/>
			</g>
		</g>
		<g>
			<g>
				<path fill="#454B54" d="M51.2,58.7c-0.3,0-0.5,0-0.8-0.1l-37.2-9.7C11.9,48.6,11,47.4,11,46V34c0-1.7,1.3-3,3-3h66
					c1.7,0,3,1.3,3,3s-1.3,3-3,3H17v6.7l34.9,9.2c1.6,0.4,2.6,2.1,2.1,3.7C53.7,57.9,52.5,58.7,51.2,58.7z"/>
			</g>
		</g>
	</g>
</g>
</svg>
