<?xml version="1.0" encoding="utf-8"?>
<!-- Generator: Adobe Illustrator 18.0.0, SVG Export Plug-In . SVG Version: 6.00 Build 0)  -->
<!DOCTYPE svg PUBLIC "-//W3C//DTD SVG 1.1//EN" "http://www.w3.org/Graphics/SVG/1.1/DTD/svg11.dtd">
<svg version="1.1" id="Слой_1" xmlns="http://www.w3.org/2000/svg" xmlns:xlink="http://www.w3.org/1999/xlink" x="0px" y="0px"
	 viewBox="0 0 128 128" enable-background="new 0 0 128 128" xml:space="preserve">
<g>
	<g>
		<polygon fill="transparent" points="124,99.5 4,99.5 4,93.5 53,93.5 54,94.5 64,94.5 74,94.5 75,93.5 124,93.5 		"/>
		<g>
			<rect x="4" y="93.5" opacity="0.3" fill="#AAAAAA" width="6" height="6"/>
		</g>
		<rect x="11" y="23.5" fill="transparent" width="106" height="70"/>
		<g>
			<polygon opacity="0.3" fill="transparent" points="117,24.5 117,23.5 11,23.5 11,93.5 13,93.5 16,28.5 			"/>
		</g>
		<rect x="16" y="28.5" fill="#AAAAAA" width="96" height="60"/>
	</g>
	<g>
		<path fill="#333333" d="M124,92h-5.5V23.5c0-0.8-0.7-1.5-1.5-1.5H11c-0.8,0-1.5,0.7-1.5,1.5V92H4c-0.8,0-1.5,0.7-1.5,1.5v6
			c0,0.8,0.7,1.5,1.5,1.5h120c0.8,0,1.5-0.7,1.5-1.5v-6C125.5,92.7,124.8,92,124,92z M12.5,25h103v67H75c-0.4,0-0.8,0.2-1.1,0.4
			L73.4,93H54.6l-0.6-0.6C53.8,92.2,53.4,92,53,92H12.5V25z M122.5,98H5.5v-3h46.9l0.6,0.6c0.3,0.3,0.7,0.4,1.1,0.4h20
			c0.4,0,0.8-0.2,1.1-0.4l0.6-0.6h46.9V98z"/>
		<path fill="#333333" d="M113.5,88.5v-60c0-0.8-0.7-1.5-1.5-1.5H16c-0.8,0-1.5,0.7-1.5,1.5v60c0,0.8,0.7,1.5,1.5,1.5h96
			C112.8,90,113.5,89.3,113.5,88.5z M110.5,87h-93V30h93V87z"/>
	</g>
</g>
</svg>
