<svg width="40" height="50" viewBox="0 0 40 50" xmlns="http://www.w3.org/2000/svg" xmlns:xlink="http://www.w3.org/1999/xlink"><title>logo</title><desc>Created using Figma</desc><use xlink:href="#a" transform="scale(1.18618)" fill="#FFF"/><use xlink:href="#b" transform="translate(12.571 21.981)" fill="#FF3339"/><defs><path id="a" d="M29.33 15.17c1.194-2.66 2.048-6.106.642-9.195C28.332 2.371 24.126.362 17.473.003L16.003 0l-.112.003C9.237.362 5.032 2.371 3.39 5.975c-1.364 2.997-.598 6.331.539 8.956A16.457 16.457 0 0 0 0 25.624c0 9.128 7.4 16.528 16.528 16.528 9.129 0 16.529-7.4 16.529-16.528A16.46 16.46 0 0 0 29.33 15.17zM7.288 11.917c-.465-1.475-.63-2.992-.074-4.208 1.17-2.558 5.443-3.322 8.847-3.511h1.241c3.403.189 7.678.953 8.847 3.51.578 1.266.38 2.857-.13 4.388a16.445 16.445 0 0 0-9.49-3c-3.424 0-6.603 1.04-9.241 2.821z"/><path id="b" d="M12.187 7.817h1.559v5.863c-.717.63-1.566 1.113-2.547 1.45a9.468 9.468 0 0 1-3.096.504c-1.537 0-2.92-.336-4.15-1.01a7.478 7.478 0 0 1-2.899-2.789C.351 10.636 0 9.296 0 7.817c0-1.478.351-2.81 1.054-3.996a7.431 7.431 0 0 1 2.899-2.81C5.183.336 6.573 0 8.125 0c1.17 0 2.247.19 3.227.57a6.331 6.331 0 0 1 2.482 1.648l-1.01 1.032c-1.215-1.2-2.76-1.8-4.634-1.8-1.244 0-2.371.277-3.381.834a5.973 5.973 0 0 0-2.35 2.283c-.57.966-.856 2.05-.856 3.25 0 1.2.285 2.284.856 3.25a6.178 6.178 0 0 0 2.35 2.284c.995.556 2.115.834 3.36.834 1.58 0 2.92-.395 4.018-1.186V7.817z"/></defs></svg>