<svg xmlns="http://www.w3.org/2000/svg" viewBox="0 0 128 128"><path fill="#EFDED5" d="M44.2 58.5c.1 6 4.9 10.8 10.9 10.7l11.4-.1c3.2 0 6.2.8 8.9 2.2v-6.8c.7-7.4 2.3-14.5 6.5-20.7l24.1-33c2.4-3.4.2-8.1-4-8.3C80.6 1.6 60.8 14 52.4 33.6l-1 2.3c-2.2 5-5.1 9.6-8.7 13.7h-1.1c1.7 2.6 2.7 5.6 2.7 8.7l-.1.2z"/><path fill="#D8B39A" d="M100.9 2.5L75.9 44c-4.2 6.1-5.8 13.2-6.5 20.7v4.5s4.1.3 6 .9v-5.5c.7-7.4 2.3-14.5 6.5-20.7L106 10.8c2.4-3.4.2-8.1-4-8.3h-1.1z"/><path fill="#F7F7FB" d="M24.5 79.3L16 87.8l68.1 31.8c3.9 2.3 8.3 3.4 12.8 3.4l18.2-.1c4-.3 7.9-2.8 7.9-10"/><path fill="#454B54" d="M77.4 73.2c-1.5 0-2.7-1.1-3-2.5l-1-6.5c-.3-1.6.9-3.2 2.5-3.4 1.6-.3 3.2.9 3.4 2.5l1 6.5c.3 1.6-.9 3.2-2.5 3.4 0-.1-.2 0-.4 0z"/><path fill="#F3797B" d="M40.8 48.7L25.8 67c-2.9 3.5-3.4 8.3-1.3 12.3l67.6 38 20.4.6c4.8 0 10.1-.7 9.4-5.4v-.1c-.2-1.3-.8-2.6-1.8-3.5l-19.1-5.5-1.9-1.8-17.2-24.4c-3.5-5-9.3-8-15.5-8l-11.4.1c-6 0-10.8-4.8-10.9-10.7v-.2c0-3.6-1.2-7-3.3-9.7z"/><path fill="#FFF" d="M40.9 91.4l40.2-11L91 95.3l-29.6 8.2z"/><path fill="#454B54" d="M123 115.9c-1.7 0-3-1.3-3-3 0-.7 0-.9-.2-1.2l-19.5-5.6c-.4-.1-.9-.4-1.2-.7l-1.9-1.8c-.2-.1-.3-.3-.4-.5L79.5 78.9c-1-1.4-.6-3.2.7-4.2 1.4-1 3.2-.6 4.2.7l17 24.1 1.2 1.1 19.7 5.6c.5.1.9.4 1.3.8l.1.1c1.3 1.3 2.4 2.6 2.4 5.8-.1 1.7-1.4 3-3.1 3zM24.5 82.3c-1.1 0-2.1-.6-2.7-1.6-2.6-5.1-2-11.2 1.6-15.6l15-18.3c.6-.7 1.4-1.1 2.4-1.1.9 0 1.8.4 2.3 1.1 2.6 3.3 4 7.3 4 11.5v.2c0 1.7-1.3 3-3 3-1.6 0-3-1.3-3-3v-.2c0-1.5-.3-3-.8-4.4l-12.2 15c-2.1 2.6-2.5 6.1-.9 9.1.8 1.5.2 3.3-1.3 4-.4.2-.9.3-1.4.3z"/><path fill="#454B54" d="M99.1 104.6c-.9 0-1.9-.4-2.5-1.3L79.5 78.9c-3-4.2-7.8-6.7-12.9-6.7h-.1l-11.4.1H55c-7.6 0-13.8-6.1-13.9-13.7v-.2c0-1.7 1.3-3 3-3 1.6 0 3 1.3 3 3v.2c.1 4.3 3.6 7.8 7.9 7.8l11.4-.1h.1c7.1 0 13.7 3.4 17.8 9.2l17.2 24.4c1 1.4.6 3.2-.7 4.2-.5.3-1.1.5-1.7.5z"/><path fill="#454B54" d="M96.9 126c-5 0-9.9-1.3-14.2-3.8l-68-31.7c-.9-.4-1.5-1.2-1.7-2.2-.2-1 .1-1.9.8-2.6l8.5-8.5c1.2-1.2 3.1-1.2 4.2 0 1.2 1.2 1.2 3.1 0 4.2l-5.4 5.4 64.2 30c.1 0 .2.1.2.1 3.4 2 7.3 3 11.3 3l18-.1c3.4-.3 5-2.6 5-7 0-1.7 1.3-3 3-3s3 1.3 3 3c0 11.3-8.2 12.8-10.7 13h-.2l-18 .2zM78.8 76.8c-.9 0-1.8-.4-2.4-1.2-1-1.3-.7-3.2.6-4.2l2.7-2.1c1.3-1 3.2-.7 4.2.6 1 1.3.7 3.2-.6 4.2l-2.7 2.1c-.5.4-1.1.6-1.8.6zm7.3 9.4c-.9 0-1.8-.4-2.4-1.2-1-1.3-.7-3.2.6-4.2l2.5-1.8c1.3-1 3.2-.7 4.2.6 1 1.3.7 3.2-.6 4.2l-2.5 1.8c-.5.4-1.1.6-1.8.6zm7.6 8.3c-1 0-1.9-.5-2.5-1.3-.9-1.4-.5-3.2.8-4.2l1.4-.9c1.4-.9 3.2-.5 4.2.9.9 1.4.5 3.2-.8 4.2l-1.4.8c-.5.3-1.1.5-1.7.5zM51.3 39c-.4 0-.8-.1-1.2-.2-1.5-.7-2.2-2.4-1.6-3.9l10-23.2c.7-1.5 2.4-2.2 3.9-1.6 1.5.7 2.2 2.4 1.6 3.9L54 37.2c-.4 1.1-1.5 1.8-2.7 1.8zm26.2 18.5c-.3 0-.5 0-.8-.1-1.6-.4-2.6-2.1-2.1-3.7 1.2-4.6 2.9-8.4 4.9-11.4l27.8-38.1c1-1.3 2.9-1.6 4.2-.7 1.3 1 1.6 2.9.7 4.2l-27.7 38c-1.6 2.3-3 5.5-4 9.5-.5 1.4-1.7 2.3-3 2.3z"/></svg>