<?xml version="1.0" encoding="utf-8"?>
<!-- Generator: Adobe Illustrator 18.0.0, SVG Export Plug-In . SVG Version: 6.00 Build 0)  -->
<!DOCTYPE svg PUBLIC "-//W3C//DTD SVG 1.1//EN" "http://www.w3.org/Graphics/SVG/1.1/DTD/svg11.dtd">
<svg version="1.1" id="Слой_1" xmlns="http://www.w3.org/2000/svg" xmlns:xlink="http://www.w3.org/1999/xlink" x="0px" y="0px"
	 viewBox="0 0 128 128" enable-background="new 0 0 128 128" xml:space="preserve">
<g>
	<g>
		<g>
			<g>
				<path fill="#FFFFFF" d="M50,121c-18.2,0-33-14.8-33-33s14.8-33,33-33s33,14.8,33,33S68.2,121,50,121z M50,61
					c-14.9,0-27,12.1-27,27s12.1,27,27,27s27-12.1,27-27S64.9,61,50,61z"/>
			</g>
		</g>
		<g>
			<g>
				<path fill="#FFFFFF" d="M60.7,108.1c-0.8,0-1.5-0.3-2.1-0.9c-5.8-5.8-9.1-13.5-9.1-21.7c0-6.7,2.1-13.1,6.2-18.4
					c1-1.3,2.9-1.6,4.2-0.6c1.3,1,1.6,2.9,0.6,4.2c-3.3,4.3-5,9.4-5,14.8c0,6.6,2.6,12.8,7.3,17.4c1.2,1.2,1.2,3.1,0,4.2
					C62.2,107.8,61.5,108.1,60.7,108.1z"/>
			</g>
		</g>
		<g>
			<g>
				<path fill="#FFFFFF" d="M80,116c-1.7,0-3-1.3-3-3s1.3-3,3-3c13.5,0,24.5-11,24.5-24.5S93.5,61,80,61c-1.7,0-3-1.3-3-3s1.3-3,3-3
					c16.8,0,30.5,13.7,30.5,30.5S96.8,116,80,116z"/>
			</g>
		</g>
		<g>
			<g>
				<rect x="45" y="41" fill="#FFFFFF" width="10" height="20"/>
			</g>
		</g>
		<g>
			<g>
				<rect x="75" y="43" fill="#FFFFFF" width="10" height="18"/>
			</g>
		</g>
		<g>
			<g>
				<path fill="#777" d="M50,44c-1.7,0-3-1.3-3-3V9c0-1.7,1.3-3,3-3s3,1.3,3,3v32C53,42.7,51.7,44,50,44z"/>
			</g>
		</g>
		<g>
			<g>
				<path fill="#777" d="M80,46c-1.7,0-3-1.3-3-3V9c0-1.7,1.3-3,3-3s3,1.3,3,3v34C83,44.7,81.7,46,80,46z"/>
			</g>
		</g>
		<g>
			<g>
				<path fill="#777" d="M55,64H45c-1.7,0-3-1.3-3-3V41c0-1.7,1.3-3,3-3h10c1.7,0,3,1.3,3,3v20C58,62.7,56.7,64,55,64z M48,58h4
					V44h-4V58z"/>
			</g>
		</g>
		<g>
			<g>
				<path fill="#777" d="M85,64H75c-1.7,0-3-1.3-3-3V43c0-1.7,1.3-3,3-3h10c1.7,0,3,1.3,3,3v18C88,62.7,86.7,64,85,64z M78,58h4
					V46h-4V58z"/>
			</g>
		</g>
	</g>
</g>
</svg>
