<svg version="1" xmlns="http://www.w3.org/2000/svg" width="933.333" height="933.333" viewBox="0 0 700.000000 700.000000"><path d="M338 58.6c-1.9.2-9.1.9-16 1.5-56.9 5-103.3 22.5-129.7 48.8-36.6 36.6-42.6 88.1-17.5 150.8l2.1 5.2-5.4 7c-25.6 32.7-41.4 70.5-47 112.5-2.2 16.3-1.7 50.9 1 65.6 4.3 23.9 10.6 43.3 21 64.5C180.1 583 246.6 630 324 640.1c15.1 1.9 44 1.5 60.6-1C485 624.2 561.9 546.8 577.7 445c2.1-13.8 2.4-46.6.4-60.5-5.6-40.8-21.3-79.2-44.7-109.7-2.4-3.1-4.4-6.1-4.4-6.6s2.3-6.8 5-14c9.7-25.4 13.6-47.2 12.7-70.5-2-52.6-34.5-90.6-94.2-110.3-32-10.5-85.8-17.4-114.5-14.8zm47.5 59.9c38.4 4.5 69.7 15.1 85.1 29 15.5 13.8 21.2 32.4 17.3 56.5-.9 5.9-4.6 20-5.5 20.9-.1.2-4.3-2.2-9.2-5.3-53.1-33.5-117.2-43.5-179.2-27.9-20.3 5.1-46.6 16.3-62.9 26.7-4 2.6-7.5 4.6-7.6 4.4-.2-.2-1.3-4.1-2.6-8.8-2.7-10.2-3.7-29.8-2-38.1 1.8-8.6 6.5-17.4 12.8-24 18.8-19.8 50.2-30 108.3-35.3 7.7-.7 31.9.3 45.5 1.9zm4.6 199.4c14.8 3.8 26.2 9.7 34.8 17.7l5.6 5.3-5.5 5.5c-3 3.1-5.8 5.6-6.3 5.6s-2.9-1.7-5.3-3.9c-5.6-4.9-15.9-10.3-25.4-13.2-10.1-3.2-33.6-3.4-44.5-.5-16 4.2-31.1 14-40 25.8-9.6 12.6-14.4 26-15.2 42.3-1.1 21 6 40.3 20.3 55 13.8 14.2 30.3 21.2 51.9 22.2 17.8.8 33.2-2.6 46.1-10.2l4.4-2.6V406h19v68l-5.2 4c-2.8 2.3-9.2 6.1-14.3 8.6-27.8 13.5-63.8 13.9-90.5.9-34.8-16.8-54.3-52.4-50.1-91.4 4.5-41.5 32.7-71.4 75.1-79.7 9.7-1.9 35.4-1.1 45.1 1.5z"/></svg>