<?xml version="1.0" encoding="utf-8"?>
<!-- Generator: Adobe Illustrator 18.0.0, SVG Export Plug-In . SVG Version: 6.00 Build 0)  -->
<!DOCTYPE svg PUBLIC "-//W3C//DTD SVG 1.1//EN" "http://www.w3.org/Graphics/SVG/1.1/DTD/svg11.dtd">
<svg version="1.1" id="Слой_1" xmlns="http://www.w3.org/2000/svg" xmlns:xlink="http://www.w3.org/1999/xlink" x="0px" y="0px"
	 viewBox="0 0 128 128" enable-background="new 0 0 128 128" xml:space="preserve">
<g>
	<g>
		<polyline fill="transparent" points="46.9,50.5 51.5,41.9 68.3,52.6 		"/>
	</g>
	<g>
		<path fill="#EEEEEE" d="M46.9,53.5c-0.5,0-1-0.1-1.4-0.4c-1.5-0.8-2-2.6-1.2-4.1l4.6-8.5c0.4-0.7,1.1-1.3,1.9-1.5
			c0.8-0.2,1.7-0.1,2.4,0.4l9.1,5.9c1.4,0.9,1.8,2.8,0.9,4.1c-0.9,1.4-2.8,1.8-4.1,0.9l-6.3-4.1l-3.1,5.7C49,52.9,48,53.5,46.9,53.5
			z"/>
	</g>
	<g>
		<path fill="transparent" d="M14.7,43.8l-5,23.1c-1,4.4,0.8,9,4.5,11.6l0,0l101.2,5.3c0.4,0,0.8,0,1.1,0h0c4.8-0.6,7.1-6.1,4.3-10
			l-0.1-0.1c-0.8-1.1-1.9-1.9-3.2-2.3l-26.8-6.9L64.3,50.6c-5.4-2.9-11.9-2.9-17.4-0.1l-10.1,5.2c-5.3,2.7-11.8,0.7-14.6-4.6
			l-0.1-0.2C20.5,47.8,17.9,45.3,14.7,43.8L14.7,43.8z"/>
	</g>
	<g>
		<g>
			<path fill="#F3797B" d="M38.9,61c-0.4,1.2-0.9,2.1-1.1,3c-0.8,3.3,1.1,5.5,4.5,5c3.3-0.5,6.6-1.3,9.8-2.1
				c6.8-1.5,13.6-3.1,20.5-4.7c0.2,0,0.3-0.1,0.6,0.1c-0.3,0.1-0.6,0.3-0.9,0.4c-9.7,3.7-19.4,7.5-29.1,11.2c-1.9,0.7-3.8,1.3-5.8,1
				c-3.3-0.3-4.9-2.7-4-5.9c0.7-2.5,2.2-4.4,3.9-6.3C37.8,62.2,38.3,61.7,38.9,61z"/>
		</g>
	</g>
	<g>
		<path fill="#EEEEEE" d="M26.1,82.1c-0.1,0-0.1,0-0.2,0l-12-0.6c-0.6,0-1.1-0.2-1.6-0.6c-4.6-3.3-6.9-9.1-5.6-14.7l5-23.1
			c0.2-0.9,0.8-1.6,1.6-2c0.8-0.4,1.8-0.4,2.6,0c3.8,1.8,6.9,4.7,8.8,8.4l0.1,0.2c2,3.8,6.7,5.3,10.6,3.3l10.1-5.2
			c6.3-3.3,13.9-3.2,20.2,0.1l26.2,13.8l29.8,9.2c1.6,0.5,2.5,2.2,2,3.8c-0.5,1.6-2.2,2.5-3.8,2l-30.1-9.3c-0.2-0.1-0.3-0.1-0.5-0.2
			L62.9,53.2c-4.6-2.4-10-2.4-14.6-0.1l-10.1,5.2c-6.7,3.5-15.1,0.8-18.6-5.9l-0.1-0.2c-0.7-1.4-1.7-2.6-2.8-3.6l-4.1,18.9
			c-0.6,3,0.4,6,2.6,8l11,0.6c1.7,0.1,2.9,1.5,2.8,3.1C29.1,80.9,27.7,82.1,26.1,82.1z"/>
	</g>
	<g>
		<path fill="#EEEEEE" d="M90.7,67.5c-0.5,0-1-0.1-1.4-0.3L62.9,53.2c-4.6-2.4-10-2.4-14.6-0.1l-10.1,5.2
			c-6.7,3.5-15.1,0.8-18.6-5.9l-0.1-0.2c-0.8-1.5-0.2-3.3,1.3-4.1c1.5-0.8,3.3-0.2,4.1,1.3l0.1,0.2c2,3.8,6.7,5.3,10.6,3.3l10.1-5.2
			c6.3-3.3,13.9-3.2,20.2,0.1l26.4,13.9c1.5,0.8,2,2.6,1.3,4.1C92.9,66.9,91.8,67.5,90.7,67.5z"/>
	</g>
	<g>
		<path fill="#EEEEEE" d="M113.7,91c-0.2,0-0.4,0-0.6,0L9.8,91c-1,0-2-0.5-2.5-1.4c-0.6-0.9-0.6-1.9-0.2-2.9l4.3-9.5
			c0.7-1.5,2.5-2.2,4-1.5c1.5,0.7,2.2,2.5,1.5,4L14.5,85h98.7c2.5,0.1,4.1-0.4,5.1-1.5c1.3-1.3,1.9-3.9,1.8-7.5
			c-0.1-1.7,1.2-3,2.9-3.1c1.7-0.1,3,1.2,3.1,2.9c0.2,5.3-1,9.3-3.5,11.9C120.4,89.9,117.4,91,113.7,91z"/>
	</g>
	<g>
		<g>
			<path fill="#F3797B" d="M58.2,55.7c-0.4,0-0.9-0.1-1.3-0.3c-1.5-0.7-2.1-2.5-1.4-4l3.4-6.8c0.7-1.5,2.5-2.1,4-1.4
				c1.5,0.7,2.1,2.5,1.4,4L60.9,54C60.4,55.1,59.3,55.7,58.2,55.7z"/>
		</g>
		<g>
			<path fill="#F3797B" d="M68.9,60.1c-0.5,0-1-0.1-1.5-0.4c-1.4-0.8-1.9-2.6-1.1-4.1l3.3-5.8c0.8-1.4,2.6-1.9,4.1-1.1
				c1.4,0.8,1.9,2.6,1.1,4.1l-3.3,5.8C70.9,59.5,69.9,60.1,68.9,60.1z"/>
		</g>
		<g>
			<path fill="#F3797B" d="M78.9,65.3c-0.5,0-1-0.1-1.5-0.4c-1.4-0.8-1.9-2.6-1.1-4.1l3.3-5.8c0.8-1.4,2.6-1.9,4.1-1.1
				c1.4,0.8,1.9,2.6,1.1,4.1l-3.3,5.8C80.9,64.8,79.9,65.3,78.9,65.3z"/>
		</g>
	</g>
</g>
</svg>
