<?xml version="1.0" encoding="utf-8"?>
<!-- Generator: Adobe Illustrator 18.0.0, SVG Export Plug-In . SVG Version: 6.00 Build 0)  -->
<!DOCTYPE svg PUBLIC "-//W3C//DTD SVG 1.1//EN" "http://www.w3.org/Graphics/SVG/1.1/DTD/svg11.dtd">
<svg version="1.1" id="Слой_1" xmlns="http://www.w3.org/2000/svg" xmlns:xlink="http://www.w3.org/1999/xlink" x="0px" y="0px"
	 viewBox="0 0 128 128" enable-background="new 0 0 128 128" xml:space="preserve">
<g>
	<g>
		<g>
			<g>
				<path fill="#F3797B" d="M44.8,67.8c-0.1,0-0.3,0-0.4,0c-1.6-0.2-2.8-1.7-2.6-3.4l5.7-41.2c0.2-1.6,1.7-2.8,3.4-2.6
					c1.6,0.2,2.8,1.7,2.6,3.4l-5.7,41.2C47.5,66.7,46.3,67.8,44.8,67.8z"/>
			</g>
		</g>
		<g>
			<g>
				<path fill="#F3797B" d="M64,43c-2.6,0-5.1-0.6-7.4-1.7c-1.5-0.7-2.1-2.5-1.4-4c0.7-1.5,2.5-2.1,4-1.4c1.5,0.7,3.1,1.1,4.7,1.1
					c6,0,10.8-4.8,10.8-10.8S70,15.4,64,15.4c-5.3,0-9.9,4-10.7,9.3c-0.2,1.6-1.8,2.8-3.4,2.5c-1.6-0.2-2.8-1.8-2.5-3.4
					C48.5,15.6,55.7,9.4,64,9.4c9.3,0,16.8,7.5,16.8,16.8S73.3,43,64,43z"/>
			</g>
		</g>
		<g>
			<g>
				
					<rect x="32.3" y="64.6" transform="matrix(0.9903 0.1392 -0.1392 0.9903 12.8696 -4.8756)" fill="#979FAA" width="18" height="50"/>
			</g>
		</g>
		<g>
			<g>
				
					<rect x="10.9" y="85.3" transform="matrix(0.1392 -0.9903 0.9903 0.1392 -57.0933 111.9587)" fill="#FFFFFF" width="50" height="7"/>
			</g>
		</g>
		<g>
			<g>
				<path fill="#454B54" d="M46.7,118.6c-0.1,0-0.3,0-0.4,0l-17.8-2.5c-1.6-0.2-2.8-1.7-2.6-3.4l6.5-46.5l-2-0.3
					c-1.5-0.2-2.6-1.5-2.6-3c0-0.1,0-0.3,0-0.4c0.2-1.6,1.7-2.8,3.4-2.6l5,0.7c0,0,0,0,0,0l17.8,2.5c0,0,0,0,0.1,0l4.8,0.7
					c1.5,0.1,2.7,1.4,2.7,3c0,1.6-1.3,3-2.9,3c-0.2,0-0.3,0-0.5,0l-2-0.3L49.7,116c-0.1,0.8-0.5,1.5-1.2,2
					C48,118.4,47.4,118.6,46.7,118.6z M32.3,110.5l11.9,1.7l6.1-43.6L38.4,67L32.3,110.5z"/>
			</g>
		</g>
		<g>
			<g>
				<path fill="#F3797B" d="M83.2,67.8c-1.5,0-2.7-1.1-3-2.6L77,43.5c-0.2-1.6,0.9-3.2,2.5-3.4c1.6-0.2,3.2,0.9,3.4,2.5l3.2,21.8
					c0.2,1.6-0.9,3.2-2.5,3.4C83.5,67.8,83.4,67.8,83.2,67.8z"/>
			</g>
		</g>
		<g>
			<g>
				
					<rect x="77.7" y="64.6" transform="matrix(0.9903 -0.1392 0.1392 0.9903 -11.6205 12.9383)" fill="#979FAA" width="18" height="50"/>
			</g>
		</g>
		<g>
			<g>
				
					<rect x="56.3" y="86.8" transform="matrix(-0.1392 -0.9903 0.9903 -0.1392 3.1198 183.3616)" fill="#FFFFFF" width="50" height="7"/>
			</g>
		</g>
		<g>
			<g>
				<path fill="#454B54" d="M81.3,118.6c-0.6,0-1.3-0.2-1.8-0.6c-0.6-0.5-1.1-1.2-1.2-2l-6.5-46.5l-2,0.3c-1.6,0.2-3.2-0.9-3.4-2.6
					c0-0.1,0-0.3,0-0.4c0-1.5,1.1-2.8,2.6-3l5-0.7c0,0,0,0,0,0l22.8-3.2c1.6-0.2,3.2,0.9,3.4,2.6c0,0.1,0,0.3,0,0.4
					c0,1.5-1.1,2.8-2.6,3l-2,0.3l6.5,46.5c0.2,1.6-0.9,3.2-2.6,3.4l-17.8,2.5C81.5,118.6,81.4,118.6,81.3,118.6z M77.7,68.6
					l6.1,43.6l11.9-1.7l-6.1-43.6L77.7,68.6z"/>
			</g>
		</g>
	</g>
</g>
</svg>
