<svg xmlns="http://www.w3.org/2000/svg" viewBox="0 0 128 128"><path fill="#92738D" d="M44.8 67.8h-.4c-1.6-.2-2.8-1.7-2.6-3.4l5.7-41.2c.2-1.6 1.7-2.8 3.4-2.6 1.6.2 2.8 1.7 2.6 3.4l-5.7 41.2c-.3 1.5-1.5 2.6-3 2.6z"/><path fill="#92738D" d="M64 43c-2.6 0-5.1-.6-7.4-1.7-1.5-.7-2.1-2.5-1.4-4 .7-1.5 2.5-2.1 4-1.4 1.5.7 3.1 1.1 4.7 1.1 6 0 10.8-4.8 10.8-10.8S70 15.4 64 15.4c-5.3 0-9.9 4-10.7 9.3-.2 1.6-1.8 2.8-3.4 2.5-1.6-.2-2.8-1.8-2.5-3.4C48.5 15.6 55.7 9.4 64 9.4c9.3 0 16.8 7.5 16.8 16.8S73.3 43 64 43z"/><path fill="#979FAA" d="M35.864 63.594L53.689 66.1l-6.96 49.515-17.825-2.506z"/><path fill="#FFF" d="M28.897 113.038l6.96-49.515 6.932.975-6.96 49.515z"/><path fill="#454B54" d="M46.7 118.6h-.4l-17.8-2.5c-1.6-.2-2.8-1.7-2.6-3.4l6.5-46.5-2-.3c-1.5-.2-2.6-1.5-2.6-3v-.4c.2-1.6 1.7-2.8 3.4-2.6l5 .7L54 63.1h.1l4.8.7c1.5.1 2.7 1.4 2.7 3s-1.3 3-2.9 3h-.5l-2-.3-6.5 46.5c-.1.8-.5 1.5-1.2 2-.5.4-1.1.6-1.8.6zm-14.4-8.1l11.9 1.7 6.1-43.6L38.4 67l-6.1 43.5z"/><path fill="#92738D" d="M83.2 67.8c-1.5 0-2.7-1.1-3-2.6L77 43.5c-.2-1.6.9-3.2 2.5-3.4 1.6-.2 3.2.9 3.4 2.5l3.2 21.8c.2 1.6-.9 3.2-2.5 3.4h-.4z"/><path fill="#979FAA" d="M74.318 66.096l17.826-2.506 6.96 49.515-17.826 2.506z"/><path fill="#FFF" d="M81.24 115.525L74.28 66.01l6.933-.974 6.96 49.515z"/><path fill="#454B54" d="M81.3 118.6c-.6 0-1.3-.2-1.8-.6-.6-.5-1.1-1.2-1.2-2l-6.5-46.5-2 .3c-1.6.2-3.2-.9-3.4-2.6v-.4c0-1.5 1.1-2.8 2.6-3l5-.7 22.8-3.2c1.6-.2 3.2.9 3.4 2.6v.4c0 1.5-1.1 2.8-2.6 3l-2 .3 6.5 46.5c.2 1.6-.9 3.2-2.6 3.4l-17.8 2.5h-.4zm-3.6-50l6.1 43.6 11.9-1.7-6.1-43.6-11.9 1.7z"/></svg>