<?xml version="1.0" encoding="utf-8"?>
<!-- Generator: Adobe Illustrator 18.0.0, SVG Export Plug-In . SVG Version: 6.00 Build 0)  -->
<!DOCTYPE svg PUBLIC "-//W3C//DTD SVG 1.1//EN" "http://www.w3.org/Graphics/SVG/1.1/DTD/svg11.dtd">
<svg version="1.1" id="Слой_1" xmlns="http://www.w3.org/2000/svg" xmlns:xlink="http://www.w3.org/1999/xlink" x="0px" y="0px"
	 viewBox="0 0 128 128" enable-background="new 0 0 128 128" xml:space="preserve">
<g>
	<g>
		<g>
			<g>
				<circle fill="transparent" cx="64" cy="70" r="40"/>
			</g>
		</g>
		<g>
			<g>
				<path fill="transparent" d="M74,21H56c-1.1,0-2-0.9-2-2v-8h20V21z"/>
			</g>
		</g>
		<g>
			<g>
				<rect x="68" y="11" fill="#FFFFFF" width="6" height="10"/>
			</g>
		</g>
		<g>
			<g>
				<path fill="#FFFFFF" d="M64,113c-11.5,0-22.3-4.5-30.4-12.6C25.5,92.3,21,81.5,21,70s4.5-22.3,12.6-30.4
					C41.7,31.5,52.5,27,64,27c11.5,0,22.3,4.5,30.4,12.6C102.5,47.7,107,58.5,107,70s-4.5,22.3-12.6,30.4
					C86.3,108.5,75.5,113,64,113z M64,33c-9.9,0-19.2,3.8-26.2,10.8c-14.4,14.4-14.4,37.9,0,52.3c7,7,16.3,10.8,26.2,10.8
					s19.2-3.8,26.2-10.8c14.4-14.4,14.4-37.9,0-52.3C83.2,36.8,73.9,33,64,33z"/>
			</g>
		</g>
		<g>
			<g>
				<path fill="#FFFFFF" d="M64,33c-1.7,0-3-1.3-3-3v-9c0-1.7,1.3-3,3-3h7v-4H57v2c0,1.7-1.3,3-3,3s-3-1.3-3-3v-5c0-1.7,1.3-3,3-3
					h20c1.7,0,3,1.3,3,3v10c0,1.7-1.3,3-3,3h-7v6C67,31.7,65.7,33,64,33z"/>
			</g>
		</g>
		<g>
			<g>
				<path fill="#F3797B" d="M94,70c0-15.4-11.7-28.1-26.7-29.8c-1.8-0.2-3.3,1.2-3.3,3V70l19,19c1.3,1.3,3.4,1.1,4.5-0.2
					C91.8,83.3,94,76.6,94,70L94,70L94,70z"/>
			</g>
		</g>
		<g>
			<g>
				<path fill="#FFFFFF" d="M59.6,100.3c-0.1,0-0.3,0-0.4,0l-0.1,0c-1.6-0.2-2.8-1.7-2.6-3.3c0.2-1.6,1.7-2.8,3.3-2.6l0.1,0
					c1.6,0.2,2.8,1.7,2.6,3.4C62.3,99.2,61.1,100.3,59.6,100.3z M71.4,99.2c-1.3,0-2.4-0.8-2.9-2c-0.5-1.6,0.3-3.3,1.9-3.8l0.2-0.1
					c1.6-0.5,3.3,0.4,3.8,1.9c0.5,1.6-0.4,3.3-1.9,3.8l-0.9-2.9l0.9,2.9C72.1,99.1,71.8,99.2,71.4,99.2z M48.3,96.2
					c-0.5,0-1.1-0.2-1.6-0.5c0,0,0,0,0,0c-1.4-0.9-1.8-2.8-0.9-4.1c0.9-1.4,2.7-1.8,4.1-1c0,0,0.1,0.1,0.1,0.1
					c1.4,0.9,1.8,2.8,0.9,4.1C50.2,95.7,49.3,96.2,48.3,96.2z M39.8,87.7c-1,0-2-0.5-2.6-1.4l2.5-1.6l-2.6,1.5
					c-0.9-1.4-0.5-3.3,0.9-4.1c1.4-0.9,3.2-0.5,4.1,0.9c0,0,0.1,0.1,0.1,0.1c0.9,1.4,0.4,3.3-1,4.1C40.9,87.6,40.4,87.7,39.8,87.7z
					 M35.8,76.4c-1.5,0-2.8-1.1-3-2.6l0-0.1c-0.2-1.6,0.9-3.2,2.6-3.4c1.6-0.2,3.2,0.9,3.4,2.6l0,0.1c0.2,1.6-1,3.1-2.6,3.3
					C36,76.4,35.9,76.4,35.8,76.4z M37,64.5c-0.3,0-0.6-0.1-1-0.2c-1.6-0.5-2.4-2.2-1.9-3.8l2.8,1l-2.8-1c0.5-1.6,2.2-2.4,3.8-1.9
					c1.6,0.5,2.4,2.2,1.9,3.8c0,0,0,0.1,0,0.1C39.4,63.7,38.3,64.5,37,64.5z M43.2,54.2c-0.7,0-1.5-0.3-2.1-0.8
					c-1.2-1.1-1.2-3-0.1-4.2l2.2,2.1L41.1,49c1.1-1.2,3-1.3,4.2-0.1c1.2,1.1,1.3,3,0.1,4.2c0,0-0.1,0.1-0.1,0.1
					C44.8,53.9,44,54.2,43.2,54.2z M53.2,47.5c-1.2,0-2.4-0.7-2.8-1.9c-0.6-1.6,0.2-3.3,1.8-3.9l1.1,2.8l-1-2.8
					c1.5-0.6,3.3,0.2,3.9,1.7c0.6,1.5-0.1,3.3-1.7,3.9c0,0-0.1,0-0.1,0.1C53.9,47.5,53.5,47.5,53.2,47.5z"/>
			</g>
		</g>
	</g>
</g>
</svg>
