<?xml version="1.0" encoding="utf-8"?>
<!-- Generator: Adobe Illustrator 18.0.0, SVG Export Plug-In . SVG Version: 6.00 Build 0)  -->
<!DOCTYPE svg PUBLIC "-//W3C//DTD SVG 1.1//EN" "http://www.w3.org/Graphics/SVG/1.1/DTD/svg11.dtd">
<svg version="1.1" id="Слой_1" xmlns="http://www.w3.org/2000/svg" xmlns:xlink="http://www.w3.org/1999/xlink" x="0px" y="0px"
	 viewBox="0 0 128 128" enable-background="new 0 0 128 128" xml:space="preserve">
<g>
	<g>
		<g>
			<g>
				<path fill="#F3797B" d="M104,114H24V64l0,0c9.4-6.2,15-16.8,15-28V14h10v5c0,8.3,6.7,15,15,15h0c8.3,0,15-6.7,15-15v-5h10v22
					c0,11.3,5.6,21.8,15,28l0,0V114z"/>
			</g>
		</g>
		<g>
			<g>
				<path fill="#FFFFFF" d="M104,64H39V36c0,11.3-5.6,21.8-15,28v30v20h15V94h65V64z"/>
			</g>
		</g>
		<g>
			<g>
				<path fill="#454B54" d="M59.4,88.9C58,88.7,57,87.3,57,85.9V80h-1.9c-1.5,0-2.8-1-3.1-2.4C51.7,75.7,53.1,74,55,74h0.1
					c1,0,1.9-0.8,1.9-1.9l0,0c0-1.5,1-2.8,2.4-3.1c1.9-0.4,3.6,1.1,3.6,2.9v14C63,87.9,61.3,89.3,59.4,88.9z"/>
			</g>
		</g>
		<g>
			<g>
				<path fill="#454B54" d="M72.4,88.9C71,88.7,70,87.3,70,85.9V80h-1.9c-1.5,0-2.8-1-3.1-2.4C64.7,75.7,66.1,74,68,74h0.1
					c1,0,1.9-0.8,1.9-1.9l0,0c0-1.5,1-2.8,2.4-3.1c1.9-0.4,3.6,1.1,3.6,2.9v14C76,87.9,74.3,89.3,72.4,88.9z"/>
			</g>
		</g>
		<g>
			<g>
				<path fill="#454B54" d="M104,117H24c-1.7,0-3-1.3-3-3V64c0-1,0.5-1.9,1.3-2.5C30.9,55.8,36,46.3,36,36V14c0-1.7,1.3-3,3-3h10
					c1.7,0,3,1.3,3,3v5c0,6.6,5.4,12,12,12s12-5.4,12-12v-5c0-1.7,1.3-3,3-3h10c1.7,0,3,1.3,3,3v22c0,10.3,5.1,19.8,13.7,25.5
					c0.8,0.6,1.3,1.5,1.3,2.5v50C107,115.7,105.7,117,104,117z M27,111h74V65.6C91.6,58.7,86,47.7,86,36V17h-4v2c0,9.9-8.1,18-18,18
					s-18-8.1-18-18v-2h-4v19c0,11.7-5.6,22.7-15,29.6V111z"/>
			</g>
		</g>
	</g>
</g>
</svg>
