<svg xmlns="http://www.w3.org/2000/svg" viewBox="0 0 128 128"><path fill="#FFF" d="M85 96H41c-5.5 0-10-4.5-10-10V42c0-5.5 4.5-10 10-10h44c5.5 0 10 4.5 10 10v44c0 5.5-4.5 10-10 10z"/><path fill="#F3797B" d="M67.4 56.1c-1.8 0-3.4.8-4.4 2.1-1-1.3-2.6-2.1-4.4-2.1-3.1 0-5.6 2.5-5.6 5.6 0 3.1 1.7 5.8 3.3 7.4 1.3 1.3 3.2 3.2 6.7 4.9 3.5-1.7 5.4-3.6 6.7-4.9 1.6-1.6 3.3-4.3 3.3-7.4 0-3.1-2.5-5.6-5.6-5.6z"/><path fill="#53C5CE" d="M77 10H49c-2.6 0-4.7 1.9-5 4.5L43 24c-.3 3.2-2 6.1-4.5 8h49c-2.6-1.9-4.2-4.8-4.5-8l-1-9.6c-.3-2.5-2.4-4.4-5-4.4z"/><path fill="#FFF" d="M49 30c.8-8 7.6-14 15.6-14h17.5l-.1-1.5c-.3-2.5-2.4-4.5-5-4.5H49c-2.6 0-4.7 1.9-5 4.5L43 24c-.3 3.2-2 6.1-4.5 8h10.1c.2-.6.4-1.3.4-2z"/><path fill="#454B54" d="M87.5 35c-.6 0-1.3-.2-1.8-.6-3.2-2.4-5.3-6.1-5.7-10.1l-1-9.6c-.1-1-1-1.8-2-1.8H49c-1 0-1.9.8-2 1.8l-1 9.5c-.4 4-2.5 7.7-5.7 10.1-1.3 1-3.2.7-4.2-.6-1-1.3-.7-3.2.6-4.2 1.9-1.4 3.1-3.6 3.3-5.9l1-9.5c.4-4.1 3.9-7.2 8-7.2h28c4.1 0 7.5 3.1 8 7.2l1 9.6c.2 2.3 1.5 4.5 3.3 5.9 1.3 1 1.6 2.9.6 4.2-.6.8-1.5 1.2-2.4 1.2z"/><path fill="#22B6C6" d="M77 118H49c-2.6 0-4.7-1.9-5-4.5l-1-9.6c-.3-3.2-2-6.1-4.5-8h49c-2.6 1.9-4.2 4.8-4.5 8l-1 9.6c-.3 2.6-2.4 4.5-5 4.5z"/><path fill="#1FA1A8" d="M43.7 110l.4 3.5c.3 2.5 2.4 4.5 5 4.5h28c2.6 0 4.7-1.9 5-4.5l.4-3.5H43.7z"/><path fill="#454B54" d="M77 121H49c-4.1 0-7.5-3.1-8-7.2l-1-9.6c-.2-2.3-1.5-4.5-3.3-5.9-1-.8-1.5-2.1-1-3.3.4-1.2 1.6-2.1 2.8-2.1h49c1.3 0 2.4.8 2.8 2.1s0 2.6-1 3.3c-1.9 1.4-3.1 3.6-3.3 5.9l-1 9.6c-.5 4.1-3.9 7.2-8 7.2zM44.7 99c.7 1.5 1.1 3 1.3 4.7l1 9.6c.1 1 1 1.8 2 1.8h28c1 0 1.9-.8 2-1.8l1-9.5c.2-1.6.6-3.2 1.3-4.7H44.7z"/><path fill="#454B54" d="M85 99H41c-7.2 0-13-5.8-13-13V42c0-7.2 5.8-13 13-13h44c7.2 0 13 5.8 13 13v44c0 7.2-5.8 13-13 13zM41 35c-3.9 0-7 3.1-7 7v44c0 3.9 3.1 7 7 7h44c3.9 0 7-3.1 7-7V42c0-3.9-3.1-7-7-7H41z"/></svg>